# xmcd
#
# Track frame offsets:
#	150
#	17392
#	36281
#	57752
#	91405
#	102760
#	120536
#	136808
#	151054
#	170859
#	184061
#	221478
#	234732
#	250833
#	265507
#	287631
#
# Disc length: 4041 seconds
#
# Revision: 4
# Processed by: cddbd v1.5.2PL0 Copyright (c) Steve Scherf et al.
# Submitted via: audiograbber 1.83.01
#
DISCID=d10fc710
DTITLE=Various Artist - Jazz and Blues Total Blues Collection 10
DYEAR=1900
DGENRE=Blues
TTITLE0=Eddy Wilsons Blues Band and Friends - I'd rather Go Blind
TTITLE1=Eddy Wilsons Blues Band and Friends - Red House
TTITLE2=Eddy Wilsons Blues Band and Friends - Now That The Magic Has Gone
TTITLE3=Eddy Wilsons Blues Band and Friends - Since I've Been Loving You
TTITLE4=Eddy Wilsons Blues Band and Friends - Miss Celie's Blues
TTITLE5=Eddy Wilsons Blues Band and Friends - Need Your Love So Bed
TTITLE6=Eddy Wilsons Blues Band and Friends -  All Your Love
TTITLE7=Eddy Wilsons Blues Band and Friends - How Blue Can You Get
TTITLE8=Eddy Wilsons Blues Band and Friends - I Just Can't Wait No More
TTITLE9=Eddy Wilsons Blues Band and Friends - The Supernatural
TTITLE10=Eddy Wilsons Blues Band and Friends - Hoochy Coochy Man
TTITLE11=Eddy Wilsons Blues Band and Friends - Hit The Road
TTITLE12=Eddy Wilsons Blues Band and Friends - Walk In My Shadow
TTITLE13=Eddy Wilsons Blues Band and Friends - Hideaway
TTITLE14=Eddy Wilsons Blues Band and Friends - I Ain't Got No Money
TTITLE15=Eddy Wilsons Blues Band and Friends - I'm Begging (Don't Ever Leave)
EXTD=
EXTT0=
EXTT1=
EXTT2=
EXTT3=
EXTT4=
EXTT5=
EXTT6=
EXTT7=
EXTT8=
EXTT9=
EXTT10=
EXTT11=
EXTT12=
EXTT13=
EXTT14=
EXTT15=
PLAYORDER=
